<?xml version="1.0" encoding="utf-8"?>
<!-- Generator: Adobe Illustrator 24.2.1, SVG Export Plug-In . SVG Version: 6.00 Build 0)  -->
<svg version="1.2" baseProfile="tiny" xmlns="http://www.w3.org/2000/svg" xmlns:xlink="http://www.w3.org/1999/xlink" x="0px"
	 y="0px" viewBox="0 0 1920 1080" overflow="visible" xml:space="preserve">
<g id="Layer_1">
	<rect x="0" fill="#354258" width="1920" height="1080"/>
</g>
<g id="Layer_2">
	<path fill="#425163" d="M1566,911.5c-305,48.5-905,49.5-1210,0c-121.6-19.7-223-99.8-223-223v-297c0-123.1,101.1-205.2,223-223
		c305-44.5,905-45.5,1210,0c121.8,18.2,223,99.8,223,223v297C1789,811.7,1687.6,892.2,1566,911.5z"/>
	<g>
		<circle fill="#BD93F9" cx="444.2" cy="550.8" r="158.8"/>
		<polygon fill="#7CF27F" points="259.2,439.5 292.2,474.5 311.2,464.5 356.1,421.1 364.2,402.5 329.2,365.5 290.2,393.5 		"/>
		<polygon fill="#B8FFB8" points="322.6,367.8 290.6,392.8 263.6,425.8 261.6,437.8 266.6,441.8 274.6,439.8 308.6,413.8 
			333.7,381.6 336.6,369.8 		"/>
		<circle fill="#F8F8F2" cx="444.2" cy="550.8" r="116"/>
		<g>
			<path fill="#2D3748" d="M264.5,444.5c-2.2,0-3.9-0.6-5.1-1.9c-0.8-0.8-0.8-2,0-2.8c0.8-0.8,2-0.8,2.8,0c1.4,1.4,6.1,1.1,15.1-4
				c8.5-4.9,18.5-12.9,28-22.4c21.5-21.5,29.9-39.6,26.4-43.1c-0.8-0.8-0.8-2,0-2.8s2-0.8,2.8,0c7.3,7.3-7.8,30-26.4,48.7
				c-9.8,9.8-20,18-28.8,23C273.1,442.7,268.1,444.5,264.5,444.5z"/>
		</g>
		<g>
			<path fill="#2D3748" d="M260.7,447.1c-1.5,0-3-0.6-4.2-1.7c-13.5-13.5,22.3-50.1,26.4-54.2c10-10,20.5-18.4,29.6-23.7
				c11.5-6.6,19.8-7.6,24.6-2.8c2.3,2.3,2.3,6,0,8.3c-2.2,2.2-5.6,2.3-7.9,0.4c-4-0.3-19.6,7.7-38,26c-18.4,18.4-26.4,33.9-26,38
				c1.9,2.3,1.7,5.7-0.4,7.9C263.7,446.5,262.2,447.1,260.7,447.1z"/>
		</g>
		<g>
			<path fill="#2D3748" d="M308.5,468.4l-4-6.8c8.3-4.9,17.9-12.6,27.1-21.8c9.2-9.2,16.9-18.8,21.8-27.1l6.8,4
				c-5.2,8.8-13.4,19-23,28.7C327.5,455,317.4,463.2,308.5,468.4z"/>
		</g>
		<g>
			<path fill="#2D3748" d="M292.2,476.2c-3.2,0-5.8-1-7.8-3L256.2,445c-2.3-2.3-2.3-6,0-8.3c2.3-2.3,6-2.3,8.3,0l27.8,27.8
				c0,0,0,0,0.1,0c1.3,0,4.8-0.8,11.2-4.5c2.8-1.6,6.4-0.7,8.1,2.1c1.6,2.8,0.7,6.4-2.1,8.1C302.6,474.2,296.8,476.2,292.2,476.2z"
				/>
		</g>
		<g>
			<path fill="#2D3748" d="M356.8,420.6c-1,0-2-0.3-3-0.8c-2.8-1.6-3.8-5.3-2.1-8.1c3.8-6.5,4.5-10.1,4.5-11.3l-27.8-27.8
				c-2.3-2.3-2.3-6,0-8.3c2.3-2.3,6-2.3,8.3,0l28.2,28.2c4.9,4.9,3.8,13.3-3.1,25.2C360.8,419.6,358.8,420.6,356.8,420.6z"/>
		</g>
		<g>
			<path fill="#2D3748" d="M443,718.3c-42.8,0-85.6-16.3-118.3-48.9c-54.8-54.8-64.6-142.1-23.2-207.5l0,0c0.2-0.4,0.5-0.7,0.8-1
				c2.3-2.3,6-2.3,8.3,0c2,2,2.3,5.2,0.7,7.5c-38.4,60.8-29.3,141.8,21.6,192.8c60.6,60.6,159.2,60.6,219.8,0
				c29.4-29.4,45.5-68.4,45.5-109.9c0-41.5-16.2-80.5-45.5-109.9c-51-51-132.1-60-192.9-21.6c-0.9,0.6-2,0.9-3.2,0.9
				c-3.3,0-5.9-2.6-5.9-5.9c0-2.1,1.1-4,2.9-5.1c65.4-41.3,152.6-31.5,207.4,23.3c31.6,31.6,49,73.6,49,118.3
				c0,44.7-17.4,86.7-49,118.3C528.6,702,485.8,718.3,443,718.3z"/>
		</g>
		<g>
			<path fill="none" d="M306.5,465c6.3-9.9,13.7-19.3,22.4-27.9c8.6-8.6,18-16.1,27.9-22.4"/>
		</g>
		<g>
			<path fill="#2D3748" d="M443,670.3c-31.8,0-61.7-12.4-84.2-34.9c-22.5-22.5-34.9-52.4-34.9-84.2c0-31.8,12.4-61.7,34.9-84.2
				c22.5-22.5,52.4-34.9,84.2-34.9s61.7,12.4,84.2,34.9c22.5,22.5,34.9,52.4,34.9,84.2c0,31.8-12.4,61.7-34.9,84.2
				C504.7,657.9,474.8,670.3,443,670.3z M443,436c-30.8,0-59.7,12-81.4,33.7c-21.8,21.8-33.7,50.7-33.7,81.4
				c0,30.8,12,59.7,33.7,81.4c21.8,21.8,50.7,33.7,81.4,33.7s59.7-12,81.4-33.7s33.7-50.7,33.7-81.4c0-30.8-12-59.7-33.7-81.4l0,0
				C502.7,447.9,473.7,436,443,436z"/>
		</g>
		<g>
			<path fill="#2D3748" d="M517.5,630.9c-1,0-2-0.4-2.8-1.2l-14.6-14.6c-1.5-1.5-1.5-4,0-5.6s4-1.5,5.6,0l14.6,14.6
				c1.5,1.5,1.5,4,0,5.6C519.5,630.5,518.5,630.9,517.5,630.9z"/>
		</g>
		<g>
			<path fill="#2D3748" d="M381.8,495.1c-1,0-2-0.4-2.8-1.2l-14.6-14.6c-1.5-1.5-1.5-4,0-5.6s4-1.5,5.6,0l14.6,14.6
				c1.5,1.5,1.5,4,0,5.6C383.8,494.7,382.8,495.1,381.8,495.1z"/>
		</g>
		<g>
			<path fill="#2D3748" d="M545.5,583.3c-0.3,0-0.7,0-1-0.1l-19.9-5.3c-2.1-0.6-3.3-2.7-2.8-4.8c0.6-2.1,2.7-3.3,4.8-2.8l19.9,5.3
				c2.1,0.6,3.3,2.7,2.8,4.8C548.8,582.1,547.2,583.3,545.5,583.3z"/>
		</g>
		<g>
			<path fill="#2D3748" d="M360,533.6c-0.3,0-0.7,0-1-0.1l-19.9-5.3c-2.1-0.6-3.3-2.7-2.8-4.8c0.6-2.1,2.7-3.3,4.8-2.8l19.9,5.3
				c2.1,0.6,3.3,2.7,2.8,4.8C363.3,532.4,361.8,533.6,360,533.6z"/>
		</g>
		<g>
			<path fill="#2D3748" d="M525.8,533.2c-1.7,0-3.3-1.2-3.8-2.9c-0.6-2.1,0.7-4.3,2.8-4.8l19.9-5.3c2.1-0.6,4.3,0.7,4.8,2.8
				c0.6,2.1-0.7,4.3-2.8,4.8l-19.9,5.3C526.5,533.2,526.2,533.2,525.8,533.2z"/>
		</g>
		<g>
			<path fill="#2D3748" d="M340.4,582.9c-1.7,0-3.3-1.2-3.8-2.9c-0.6-2.1,0.7-4.3,2.8-4.8l19.9-5.3c2.1-0.6,4.3,0.7,4.8,2.8
				c0.6,2.1-0.7,4.3-2.8,4.8l-19.9,5.3C341,582.9,340.7,582.9,340.4,582.9z"/>
		</g>
		<g>
			<path fill="#2D3748" d="M503.5,494.4c-1,0-2-0.4-2.8-1.2c-1.5-1.5-1.5-4,0-5.6l14.6-14.6c1.5-1.5,4-1.5,5.6,0s1.5,4,0,5.6
				l-14.6,14.6C505.5,494,504.5,494.4,503.5,494.4z"/>
		</g>
		<g>
			<path fill="#2D3748" d="M367.7,630.2c-1,0-2-0.4-2.8-1.2c-1.5-1.5-1.5-4,0-5.6l14.6-14.6c1.5-1.5,4-1.5,5.6,0
				c1.5,1.5,1.5,4,0,5.6L370.5,629C369.7,629.8,368.7,630.2,367.7,630.2z"/>
		</g>
		<g>
			<path fill="#2D3748" d="M464.6,472.2c-0.3,0-0.7,0-1-0.1c-2.1-0.6-3.3-2.7-2.8-4.8l5.3-19.9c0.6-2.1,2.7-3.3,4.8-2.8
				c2.1,0.6,3.3,2.7,2.8,4.8l-5.3,19.9C468,471,466.4,472.2,464.6,472.2z"/>
		</g>
		<g>
			<path fill="#2D3748" d="M415,657.6c-0.3,0-0.7,0-1-0.1c-2.1-0.6-3.3-2.7-2.8-4.8l5.3-19.9c0.6-2.1,2.7-3.4,4.8-2.8
				c2.1,0.6,3.3,2.7,2.8,4.8l-5.3,19.9C418.3,656.5,416.7,657.6,415,657.6z"/>
		</g>
		<g>
			<path fill="#2D3748" d="M420,472.5c-1.7,0-3.3-1.2-3.8-2.9l-5.3-19.9c-0.6-2.1,0.7-4.3,2.8-4.8c2.1-0.6,4.3,0.7,4.8,2.8l5.3,19.9
				c0.6,2.1-0.7,4.3-2.8,4.8C420.7,472.5,420.4,472.5,420,472.5z"/>
		</g>
		<g>
			<path fill="#2D3748" d="M469.7,658c-1.7,0-3.3-1.2-3.8-2.9l-5.3-19.9c-0.6-2.1,0.7-4.3,2.8-4.8c2.1-0.6,4.3,0.7,4.8,2.8l5.3,19.9
				c0.6,2.1-0.7,4.3-2.8,4.8C470.4,657.9,470.1,658,469.7,658z"/>
		</g>
		<g>
			<path fill="#FF79C6" d="M431.5,554.5l-1.5-48.6l24.2,42.2c1.8,6.3-1.9,12.8-8.1,14.6S433.3,560.7,431.5,554.5z"/>
			<path fill="#BF4F94" d="M442.9,565c-6,0-11.5-4-13.3-10c0-0.2-0.1-0.3-0.1-0.5l-1.5-48.6c0-0.9,0.6-1.7,1.4-2
				c0.9-0.2,1.8,0.1,2.2,0.9l24.2,42.2c0.1,0.1,0.1,0.3,0.2,0.4c2.1,7.3-2.2,14.9-9.5,17C445.4,564.8,444.1,565,442.9,565z
				 M433.5,554.1c1.6,5.1,6.9,8,12.1,6.6c5.1-1.5,8.2-6.8,6.8-11.9l-20.2-35.2L433.5,554.1z"/>
		</g>
		<g display="none">
			
				<rect x="344.1" y="374.4" transform="matrix(0.7071 -0.7071 0.7071 0.7071 -177.2489 360.1097)" display="inline" fill="#2D3748" width="3.9" height="39.3"/>
		</g>
		<g display="none">
			
				<rect x="341.3" y="382.7" transform="matrix(0.7071 -0.7071 0.7071 0.7071 -183.9632 360.5868)" display="inline" fill="#2D3748" width="3.9" height="39.3"/>
		</g>
		<g display="none">
			
				<rect x="337.2" y="389.7" transform="matrix(0.7071 -0.7072 0.7072 0.7071 -190.1084 359.7279)" display="inline" fill="#2D3748" width="3.9" height="39.3"/>
		</g>
	</g>
	<g>
		<path fill="#F8F8F2" d="M838,374.1c1.7-1.1,3.6-1.6,5.7-1.6c2.6,0,4.9,0.8,6.8,2.5c1.9,1.6,2.9,3.8,2.9,6.6c0,1-0.3,2.4-0.8,4.3
			l-35.2,97.6c-0.9,2.2-2.3,3.9-4.3,5.1c-2,1.2-4.2,1.8-6.6,1.8c-2.4,0-4.6-0.6-6.7-1.8c-2.1-1.2-3.5-2.9-4.3-5.1L768,406.1
			l-27.7,77.2c-0.9,2.2-2.3,3.9-4.3,5.1c-2,1.2-4.2,1.8-6.6,1.8c-2.4,0-4.6-0.6-6.6-1.8c-2-1.2-3.4-2.9-4.2-5.1l-35.3-97.6
			c-0.5-1.6-0.8-3.1-0.8-4.3c0-2.7,1-4.9,3-6.6c2-1.6,4.4-2.5,7.1-2.5c2.2,0,4.2,0.5,5.9,1.6c1.7,1.1,3,2.7,3.8,4.9l27.9,80.2
			l28.7-79.7c0.8-2.2,2-3.9,3.8-5.2c1.7-1.3,3.7-1.9,5.7-1.9c2.1,0,4,0.6,5.8,1.9c1.8,1.3,3.1,3,3.9,5.3l27.9,80.5l28.4-81.2
			C835,376.8,836.3,375.2,838,374.1z"/>
		<path fill="#F8F8F2" d="M929.7,469.2c1.1,1.4,1.7,3.3,1.7,5.7c0,3.4-2,6.2-6.1,8.5c-3.7,2.1-7.9,3.7-12.6,5
			c-4.7,1.3-9.2,1.9-13.4,1.9c-12.9,0-23.1-3.7-30.7-11.1c-7.5-7.4-11.3-17.6-11.3-30.5c0-8.2,1.6-15.5,4.9-21.8
			c3.3-6.3,7.9-11.3,13.9-14.8c6-3.5,12.7-5.3,20.3-5.3c7.2,0,13.5,1.6,18.9,4.8c5.4,3.2,9.5,7.7,12.5,13.4c3,5.8,4.4,12.6,4.4,20.5
			c0,4.7-2.1,7.1-6.2,7.1l-48.4,0c0.7,7.5,2.8,13.1,6.4,16.6c3.6,3.6,8.9,5.3,15.7,5.3c3.5,0,6.6-0.4,9.3-1.3
			c2.7-0.9,5.7-2.1,9.1-3.6c3.3-1.7,5.7-2.6,7.2-2.6C927,467,928.5,467.8,929.7,469.2z M883.4,426.5c-3.3,3.5-5.3,8.5-6,15.1l37.1,0
			c-0.2-6.7-1.9-11.7-4.9-15.2c-3.1-3.4-7.3-5.2-12.8-5.2C891.2,421.3,886.7,423,883.4,426.5z"/>
		<path fill="#F8F8F2" d="M1015,411.9c5.4,3.4,9.5,8.2,12.5,14.4c3,6.2,4.5,13.5,4.5,21.8c0,8.3-1.5,15.7-4.5,22.1
			c-3,6.4-7.2,11.3-12.6,14.8c-5.4,3.5-11.6,5.3-18.5,5.3c-5.8,0-11-1.3-15.5-3.8c-4.5-2.5-8-6-10.4-10.5l0,4.1c0,3-0.9,5.3-2.8,7.1
			c-1.9,1.8-4.3,2.6-7.4,2.6c-3.1,0-5.5-0.9-7.3-2.6c-1.8-1.7-2.7-4.1-2.7-7.1l0-98.1c0-2.8,1-5.1,2.9-6.9c1.9-1.7,4.4-2.6,7.5-2.6
			c3.1,0,5.5,0.8,7.4,2.5c1.9,1.6,2.8,3.9,2.8,6.7l0,38.7c2.4-4.4,5.8-7.7,10.3-10.1c4.5-2.4,9.6-3.5,15.3-3.5
			C1003.5,406.8,1009.7,408.5,1015,411.9z M1006.2,467.5c3.6-4.6,5.4-11,5.4-19.4c0-8.2-1.8-14.5-5.3-18.9
			c-3.6-4.4-8.6-6.6-15.2-6.6c-6.6,0-11.6,2.2-15.2,6.6c-3.6,4.4-5.3,10.8-5.3,19.1c0,8.3,1.8,14.7,5.3,19.2
			c3.6,4.5,8.6,6.7,15.2,6.7C997.5,474.4,1002.6,472.1,1006.2,467.5z"/>
		<path fill="#F8F8F2" d="M1247.1,374c1.7-1.1,3.6-1.6,5.7-1.6c2.6,0,4.9,0.8,6.8,2.5c1.9,1.6,2.9,3.8,2.9,6.6c0,1-0.3,2.4-0.8,4.3
			l-35.2,97.6c-0.9,2.2-2.3,3.9-4.3,5.1c-2,1.2-4.2,1.8-6.6,1.8c-2.4,0-4.6-0.6-6.7-1.8c-2.1-1.2-3.5-2.9-4.3-5.1l-27.2-77.2
			l-27.7,77.2c-0.9,2.2-2.3,3.9-4.3,5.1c-2,1.2-4.2,1.8-6.6,1.8c-2.4,0-4.6-0.6-6.6-1.8c-2-1.2-3.4-2.9-4.2-5.1l-35.3-97.6
			c-0.5-1.6-0.8-3.1-0.8-4.3c0-2.7,1-4.9,3-6.6c2-1.6,4.4-2.5,7.1-2.5c2.2,0,4.2,0.5,5.9,1.6c1.7,1.1,3,2.7,3.8,4.9l27.9,80.2
			l28.7-79.7c0.8-2.2,2-3.9,3.8-5.2c1.7-1.3,3.7-1.9,5.7-1.9c2.1,0,4,0.6,5.8,1.9c1.8,1.3,3.1,3,3.9,5.3l27.9,80.5l28.4-81.2
			C1244.2,376.7,1245.4,375.1,1247.1,374z"/>
		<path fill="#F8F8F2" d="M1285.9,485.2c-6.2-3.4-11-8.3-14.4-14.6c-3.4-6.3-5.1-13.7-5.1-22.1c0-8.4,1.7-15.8,5.1-22.1
			c3.4-6.3,8.2-11.1,14.3-14.5c6.2-3.4,13.4-5.1,21.6-5.1c8.2,0,15.4,1.7,21.6,5.1c6.2,3.4,10.9,8.2,14.3,14.5
			c3.3,6.3,5,13.6,5,22.1c0,8.4-1.7,15.8-5,22.1c-3.3,6.3-8.1,11.2-14.3,14.6c-6.2,3.4-13.4,5.1-21.6,5.1
			C1299.2,490.3,1292,488.6,1285.9,485.2z M1322.5,467.8c3.5-4.4,5.2-10.8,5.2-19.4c0-8.4-1.8-14.8-5.3-19.3
			c-3.5-4.4-8.5-6.6-15.1-6.6c-6.6,0-11.6,2.2-15.2,6.6c-3.6,4.4-5.3,10.9-5.3,19.3c0,8.5,1.8,15,5.3,19.4c3.5,4.4,8.5,6.6,15.1,6.6
			C1313.9,474.3,1319,472.2,1322.5,467.8z"/>
		<path fill="#F8F8F2" d="M1418.3,408.9c1.6,1.4,2.5,3.6,2.5,6.4c0,3-0.7,5.1-2.1,6.6c-1.4,1.4-4,2.4-7.7,2.8l-4.9,0.5
			c-6.5,0.7-11.2,2.8-14.2,6.6c-3,3.7-4.5,8.4-4.5,13.9l0,34.4c0,3.2-1,5.6-3,7.3c-2,1.7-4.4,2.5-7.4,2.5c-3,0-5.4-0.8-7.3-2.5
			c-1.9-1.7-2.9-4.1-2.9-7.3l0-63.5c0-3.1,1-5.4,2.9-7.1c1.9-1.6,4.3-2.5,7.1-2.5c2.8,0,5.1,0.8,6.9,2.4c1.7,1.6,2.6,3.9,2.6,6.8
			l0,6.6c2.1-4.8,5.2-8.5,9.3-11.2c4.1-2.6,8.7-4.1,13.7-4.4l2.3-0.2C1414.4,406.9,1416.6,407.5,1418.3,408.9z"/>
		<path fill="#F8F8F2" d="M1510,480c0,2.5-0.9,4.8-2.7,6.7s-3.9,3-6.3,3c-2.4,0-4.6-1-6.7-3l-38.4-34.8l0,28c0,3.2-1,5.6-3,7.2
			c-2,1.6-4.4,2.5-7.4,2.5s-5.4-0.8-7.3-2.5c-1.9-1.6-2.9-4-2.9-7.2l0-97.9c0-3.2,1-5.6,2.9-7.2c1.9-1.6,4.3-2.5,7.3-2.5
			s5.4,0.8,7.4,2.5c2,1.6,3,4,3,7.2l0,61.7l35.1-33.6c2-2,4.2-3,6.7-3c2.5,0,4.7,0.9,6.6,2.8c1.9,1.9,2.8,4,2.8,6.6
			c0,2.5-1,4.8-3.1,6.9l-25.7,23.9l28.5,25.6C1508.9,475.1,1510,477.4,1510,480z"/>
		<path fill="#F8F8F2" d="M1591.7,469c1.1,1.4,1.7,3.3,1.7,5.7c0,3.4-2,6.2-6.1,8.5c-3.7,2.1-7.9,3.7-12.6,5
			c-4.7,1.3-9.2,1.9-13.4,1.9c-12.9,0-23.1-3.7-30.7-11.1c-7.5-7.4-11.3-17.6-11.3-30.5c0-8.2,1.6-15.5,4.9-21.8
			c3.3-6.3,7.9-11.3,13.9-14.8c6-3.5,12.7-5.3,20.3-5.3c7.2,0,13.5,1.6,18.9,4.8c5.4,3.2,9.5,7.7,12.5,13.4c3,5.8,4.4,12.6,4.4,20.5
			c0,4.7-2.1,7.1-6.2,7.1l-48.4,0c0.7,7.5,2.8,13.1,6.4,16.6c3.6,3.6,8.9,5.3,15.7,5.3c3.5,0,6.6-0.4,9.3-1.3
			c2.7-0.9,5.7-2.1,9.1-3.6c3.3-1.7,5.7-2.6,7.2-2.6C1589.1,466.9,1590.6,467.6,1591.7,469z M1545.5,426.4c-3.3,3.5-5.3,8.5-6,15.1
			l37.1,0c-0.2-6.7-1.9-11.7-4.9-15.2c-3.1-3.4-7.3-5.2-12.8-5.2C1553.3,421.2,1548.8,422.9,1545.5,426.4z"/>
		<path fill="#F8F8F2" d="M1664,408.8c1.6,1.4,2.5,3.6,2.5,6.4c0,3-0.7,5.1-2.1,6.6c-1.4,1.4-4,2.4-7.7,2.8l-4.9,0.5
			c-6.5,0.7-11.2,2.8-14.2,6.6c-3,3.7-4.5,8.4-4.5,13.9l0,34.4c0,3.2-1,5.6-3,7.3c-2,1.7-4.4,2.5-7.4,2.5s-5.4-0.8-7.3-2.5
			c-1.9-1.7-2.9-4.1-2.9-7.3l0-63.5c0-3.1,1-5.4,2.9-7.1c1.9-1.6,4.3-2.5,7.1-2.5c2.8,0,5.1,0.8,6.9,2.4c1.7,1.6,2.6,3.9,2.6,6.8
			l0,6.6c2.1-4.8,5.2-8.5,9.3-11.2s8.7-4.1,13.7-4.4l2.3-0.2C1660.1,406.8,1662.3,407.4,1664,408.8z"/>
		<path fill="#F8F8F2" d="M719.5,683.8c-1.9-1.9-2.9-4.5-2.9-7.6l0-88.6l-29.8,0c-6.6,0-9.8-2.9-9.8-8.7c0-5.8,3.3-8.7,9.8-8.7
			l80.9,0c6.6,0,9.8,2.9,9.8,8.7c0,5.8-3.3,8.7-9.8,8.7l-29.8,0l0,88.6c0,3.2-1,5.7-2.9,7.6c-1.9,1.9-4.5,2.9-7.6,2.9
			C724,686.7,721.4,685.7,719.5,683.8z"/>
		<path fill="#F8F8F2" d="M799.7,586.4c-2.2-2-3.3-4.7-3.3-8c0-3.3,1.1-5.9,3.3-7.9c2.2-2,5.1-3,8.9-3c3.6,0,6.5,1,8.8,3
			c2.2,2,3.4,4.6,3.4,7.9c0,3.3-1.1,5.9-3.3,8c-2.2,2-5.1,3-8.9,3C804.9,589.4,801.9,588.4,799.7,586.4z M801.3,684.3
			c-1.9-1.7-2.9-4.1-2.9-7.3l0-63.3c0-3.2,1-5.6,2.9-7.2c1.9-1.6,4.3-2.5,7.3-2.5c3,0,5.4,0.8,7.4,2.5c2,1.6,3,4,3,7.2l0,63.3
			c0,3.2-1,5.6-3,7.3c-2,1.7-4.4,2.5-7.4,2.5C805.6,686.8,803.2,686,801.3,684.3z"/>
		<path fill="#F8F8F2" d="M957.1,611.4c4.6,5.2,7,13.6,7,25.2l0,40.3c0,3.2-1,5.6-2.9,7.3c-1.9,1.7-4.4,2.5-7.5,2.5
			c-3,0-5.4-0.8-7.3-2.5c-1.9-1.7-2.9-4.1-2.9-7.3l0-40.3c0-6-1.1-10.3-3.2-12.9c-2.1-2.6-5.4-3.9-9.8-3.9c-5.4,0-9.6,1.8-12.8,5.5
			c-3.2,3.7-4.8,8.7-4.8,15l0,36.6c0,3.2-1,5.6-2.9,7.3c-1.9,1.7-4.3,2.5-7.3,2.5c-3,0-5.4-0.8-7.4-2.5s-3-4.1-3-7.3l0-40.3
			c0-6-1.1-10.3-3.2-12.9c-2.1-2.6-5.4-3.9-9.8-3.9c-5.4,0-9.6,1.8-12.7,5.5c-3.1,3.7-4.7,8.7-4.7,15l0,36.6c0,3.2-1,5.6-3,7.3
			c-2,1.7-4.4,2.5-7.4,2.5c-3,0-5.4-0.8-7.3-2.5c-1.9-1.7-2.9-4.1-2.9-7.3l0-63.5c0-3.1,1-5.4,3-7.1c2-1.6,4.4-2.5,7.4-2.5
			c2.8,0,5.2,0.8,7,2.4c1.8,1.6,2.7,3.9,2.7,6.8l0,3.9c2.5-4.4,5.9-7.7,10.1-10c4.2-2.3,9-3.4,14.5-3.4c12,0,20.1,5,24.1,15.1
			c2.4-4.6,6-8.3,10.7-11c4.7-2.7,10-4.1,15.9-4.1C945.7,603.7,952.4,606.3,957.1,611.4z"/>
		<path fill="#F8F8F2" d="M1054.5,666c1.1,1.4,1.7,3.3,1.7,5.7c0,3.4-2,6.2-6.1,8.5c-3.7,2.1-7.9,3.7-12.6,5
			c-4.7,1.3-9.2,1.9-13.4,1.9c-12.9,0-23.1-3.7-30.7-11.1c-7.5-7.4-11.3-17.6-11.3-30.5c0-8.2,1.6-15.5,4.9-21.8
			c3.3-6.3,7.9-11.3,13.9-14.8c6-3.5,12.7-5.3,20.3-5.3c7.2,0,13.5,1.6,18.9,4.8c5.4,3.2,9.5,7.7,12.5,13.4c3,5.8,4.4,12.6,4.4,20.5
			c0,4.7-2.1,7.1-6.2,7.1l-48.4,0c0.7,7.5,2.8,13.1,6.4,16.6c3.6,3.6,8.9,5.3,15.7,5.3c3.5,0,6.6-0.4,9.3-1.3
			c2.7-0.9,5.7-2.1,9.1-3.6c3.3-1.7,5.7-2.6,7.2-2.6C1051.9,663.8,1053.4,664.5,1054.5,666z M1008.2,623.3c-3.3,3.5-5.3,8.5-6,15.1
			l37.1,0c-0.2-6.7-1.9-11.7-4.9-15.2c-3.1-3.4-7.3-5.2-12.8-5.2C1016,618.1,1011.6,619.8,1008.2,623.3z"/>
		<path fill="#F8F8F2" d="M1126.7,605.8c1.6,1.4,2.5,3.6,2.5,6.4c0,3-0.7,5.1-2.1,6.6c-1.4,1.4-4,2.4-7.7,2.8l-4.9,0.5
			c-6.5,0.7-11.2,2.8-14.2,6.6c-3,3.7-4.5,8.4-4.5,13.9l0,34.4c0,3.2-1,5.6-3,7.3c-2,1.7-4.4,2.5-7.4,2.5c-3,0-5.4-0.8-7.3-2.5
			c-1.9-1.7-2.9-4.1-2.9-7.3l0-63.5c0-3.1,1-5.4,2.9-7.1c1.9-1.6,4.3-2.5,7.1-2.5c2.8,0,5.1,0.8,6.9,2.4c1.7,1.6,2.6,3.9,2.6,6.8
			l0,6.6c2.1-4.8,5.2-8.5,9.3-11.2c4.1-2.6,8.7-4.1,13.7-4.4l2.3-0.2C1122.9,603.7,1125.1,604.3,1126.7,605.8z"/>
		<path fill="#F8F8F2" d="M1139.1,680c-3.5-2.1-5.2-5-5.3-8.9c0-2.2,0.6-4,1.8-5.3c1.2-1.4,2.7-2.1,4.4-2.1c1.9,0,4.4,0.9,7.7,2.6
			c3.5,1.6,6.7,2.9,9.6,3.8c2.9,0.9,6.6,1.3,11.1,1.3c4.6,0,8.2-0.8,10.7-2.3c2.6-1.5,3.9-3.7,3.9-6.4c0-1.9-0.5-3.3-1.6-4.4
			c-1-1.1-2.9-2.1-5.6-3c-2.7-0.9-6.8-2-12.2-3.2c-9.7-2-16.7-4.8-20.9-8.4c-4.2-3.6-6.3-8.6-6.3-14.9c0-4.8,1.4-9.2,4.3-13
			c2.8-3.9,6.7-6.9,11.7-9c5-2.1,10.6-3.2,17-3.2c4.6,0,9,0.6,13.3,1.7c4.3,1.1,8.1,2.8,11.5,5c3.5,2.2,5.2,5.1,5.3,8.7
			c0,2.2-0.6,4-1.8,5.5c-1.2,1.5-2.7,2.2-4.4,2.2c-1.2,0-2.4-0.2-3.5-0.7c-1.1-0.5-2.6-1.2-4.3-2.2c-3.2-1.6-5.9-2.9-8.2-3.7
			c-2.3-0.8-5.1-1.2-8.5-1.2c-4,0-7.2,0.8-9.6,2.5c-2.4,1.6-3.5,3.9-3.5,6.7c0,2.7,1.2,4.8,3.6,6.2c2.4,1.4,7.1,2.8,13.9,4.3
			c7.3,1.5,13.1,3.3,17.2,5.2c4.2,2,7.1,4.4,8.9,7.4c1.8,3,2.7,6.7,2.7,11.3c0,7.4-3.1,13.4-9.3,17.9c-6.2,4.5-14.4,6.7-24.7,6.7
			C1156,687.1,1146.4,684.7,1139.1,680z"/>
	</g>
</g>
</svg>
