<?xml version="1.0" encoding="utf-8"?>
<!-- Generator: Adobe Illustrator 24.2.1, SVG Export Plug-In . SVG Version: 6.00 Build 0)  -->
<svg version="1.1" id="Layer_1" xmlns="http://www.w3.org/2000/svg" xmlns:xlink="http://www.w3.org/1999/xlink" x="0px" y="0px"
	 viewBox="0 0 1920 1080" enable-background="new 0 0 1920 1080" xml:space="preserve">
<g>
	<defs>
		<rect id="SVGID_1_" width="1920" height="1080"/>
	</defs>
	<clipPath id="SVGID_2_">
		<use xlink:href="#SVGID_1_"  overflow="visible"/>
	</clipPath>
	<g clip-path="url(#SVGID_2_)">
		<rect fill="#282A36" width="1920" height="1080"/>
	</g>
	<g clip-path="url(#SVGID_2_)">
		<g>
			<path fill="none" d="M1835.8,173.8v732.3c0,31.7,25.7,57.5,57.5,57.5h26.7v-54.7c-20.2-8.9-34.3-29.1-34.3-52.6V223.7
				c0-23.5,14.1-43.7,34.3-52.6v-54.7h-26.7C1861.6,116.4,1835.8,142.1,1835.8,173.8z"/>
		</g>
		<g>
			<path fill="none" d="M0,924.8l92.7,151c0.8,1.4,1.5,2.8,2,4.2H152L0,831.8V924.8z"/>
		</g>
		<g>
			<polygon fill="none" points="0,1080 35.8,1080 0,1021.7 			"/>
		</g>
		<g>
			<path fill="none" d="M766.4,346.2c-53.5,53.5-80.3,118.1-80.3,193.8s26.8,140.3,80.3,193.8s118.1,80.3,193.8,80.3
				s140.3-26.8,193.8-80.3s80.3-118.1,80.3-193.8s-26.8-140.3-80.3-193.8s-118.1-80.3-193.8-80.3
				C884.5,265.9,819.9,292.6,766.4,346.2z"/>
		</g>
		<g>
			<path fill="none" d="M1736.2,74.2v931.7c0,31.7,25.7,57.5,57.5,57.5H1920v-49.8h-76.5c-31.7,0-57.5-25.7-57.5-57.5V124
				c0-31.7,25.7-57.5,57.5-57.5h76.5V16.7h-126.4C1761.9,16.7,1736.2,42.4,1736.2,74.2z"/>
		</g>
		<g>
			<path fill="none" d="M772.6,216.4c-57.2,33.5-102.6,78.8-136,136c-33.5,57.2-50.2,119.8-50.2,187.6s16.7,130.4,50.2,187.6
				c33.5,57.2,78.8,102.6,136,136c57.2,33.5,119.8,50.2,187.6,50.2s130.4-16.7,187.6-50.2s102.6-78.8,136-136
				c33.5-57.2,50.2-119.8,50.2-187.6s-16.7-130.4-50.2-187.6s-78.8-102.6-136-136c-57.2-33.5-119.8-50.2-187.6-50.2
				S829.8,182.9,772.6,216.4z M1189.3,310.9c29.1,29.1,52.1,63.6,69.2,103.5s25.6,81.8,25.6,125.6s-8.5,85.7-25.6,125.6
				c-17.1,39.9-40.1,74.4-69.2,103.5s-63.6,52.2-103.5,69.2c-39.9,17.1-81.8,25.6-125.6,25.6s-85.7-8.5-125.6-25.6
				c-39.9-17.1-74.4-40.1-103.5-69.2c-29.1-29.1-52.2-63.6-69.2-103.5c-17.1-39.9-25.6-81.8-25.6-125.6s8.5-85.7,25.6-125.6
				S702,340,731.1,310.9c29.1-29.1,63.6-52.1,103.5-69.2s81.8-25.6,125.6-25.6s85.7,8.5,125.6,25.6
				C1125.7,258.7,1160.2,281.8,1189.3,310.9z"/>
		</g>
		<g>
			<path fill="none" d="M737.6,12.2c-70.8,30.2-131.9,71-183.1,122.2c-51.2,51.2-92,112.3-122.2,183.1
				C402.1,388.3,387,462.5,387,540s15.1,151.7,45.3,222.5c30.2,70.8,71,131.9,122.2,183.1c51.2,51.2,112.2,92,183.1,122.2
				c10.3,4.4,20.6,8.4,31,12.2h383.1c10.4-3.7,20.7-7.8,31-12.2c70.8-30.2,131.9-71,183.1-122.2s91.9-112.2,122.2-183.1
				c30.2-70.8,45.3-145,45.3-222.5s-15.1-151.7-45.3-222.5c-30.2-70.8-71-131.9-122.2-183.1s-112.3-91.9-183.1-122.2
				c-10.3-4.4-20.6-8.4-31-12.2H768.6C758.2,3.7,747.9,7.8,737.6,12.2z M1222.5,86.9c80.3,46.8,143.9,110.4,190.7,190.7
				c46.8,80.3,70.3,167.8,70.3,262.4s-23.4,182.1-70.3,262.4c-46.8,80.3-110.4,143.9-190.7,190.7c-80.3,46.8-167.8,70.3-262.4,70.3
				S778,1040,697.7,993.1C617.5,946.2,554,882.6,507.1,802.4c-46.8-80.3-70.3-167.7-70.3-262.4c0-94.6,23.4-182.1,70.3-262.4
				S617.5,133.8,697.8,86.9c80.3-46.8,167.7-70.3,262.4-70.3C1054.8,16.7,1142.2,40.1,1222.5,86.9z"/>
		</g>
		<g>
			<path fill="none" d="M181.4,945.4V0h-49.8v800.5c0,24.9-32.9,33.9-45.6,12.5l-0.8-1.4c-2.2-3.8-3.4-8.1-3.4-12.5V0H31.9v635.7
				c0,18.2-17.5,27.9-31.9,23.5v77.2l136,221.8C149,979.3,181.4,970.1,181.4,945.4z"/>
		</g>
		<g>
			<path fill="none" d="M776,103.9c-58.6,24.9-109,58.5-151.3,100.7c-42.2,42.2-75.8,92.7-100.7,151.3
				c-24.9,58.6-37.4,120-37.4,184.1s12.5,125.5,37.4,184.1c24.9,58.6,58.5,109,100.7,151.3c42.2,42.2,92.6,75.8,151.3,100.7
				c58.6,24.9,120,37.4,184.1,37.4s125.5-12.5,184.1-37.4s109-58.5,151.3-100.7c42.2-42.2,75.8-92.6,100.7-151.3
				c24.9-58.6,37.4-120,37.4-184.1s-12.5-125.5-37.4-184.1s-58.5-109-100.7-151.3c-42.2-42.2-92.7-75.8-151.3-100.7
				c-58.6-24.9-120-37.4-184.1-37.4C896,66.5,834.6,79,776,103.9z M1172.7,173.1c65.1,37.8,116.5,89.3,154.4,154.4
				c37.8,65.1,56.8,135.9,56.8,212.5s-18.9,147.4-56.8,212.5c-37.8,65.1-89.3,116.5-154.4,154.4c-65.1,37.8-135.9,56.8-212.5,56.8
				s-147.4-18.9-212.5-56.8c-65.1-37.8-116.5-89.3-154.4-154.4c-37.8-65.1-56.8-135.9-56.8-212.5s18.9-147.4,56.8-212.5
				c37.8-65.1,89.3-116.5,154.4-154.4c65.1-37.8,135.9-56.8,212.5-56.8C1036.8,116.4,1107.6,135.3,1172.7,173.1z"/>
		</g>
		<g>
			<path fill="#20222B" d="M7.2,664.3c-2.8,0-5.6-0.4-8.3-1.2l-2.8-0.9V-4h39.9v639.7c0,9.3-4,17.4-11.3,22.8
				C19.5,662.3,13.4,664.3,7.2,664.3z M4,656c5.5,0.8,11.4-0.6,15.9-4c5.2-3.8,8-9.6,8-16.4V4H4V656z"/>
		</g>
		<g>
			<path fill="#20222B" d="M100.5,1083.9H33.6L-4,1022.7V910.7l100.3,163.1c1,1.8,1.8,3.4,2.3,4.8L100.5,1083.9z M38,1075.9h50.2
				L4,938.9v81.5L38,1075.9z"/>
		</g>
		<g>
			<path fill="#20222B" d="M106.7,829.1c-9.8,0-18.8-5.1-24.1-14l-1-1.5c-2.6-4.4-3.9-9.5-3.9-14.5V-4h57.9v804.5
				c0,13.3-8.2,24.1-21,27.5C111.9,828.8,109.3,829.1,106.7,829.1z M88.5,809.5l0.9,1.4c5.9,10,16.1,11.3,23.1,9.4
				c7-1.9,15.1-8.2,15.1-19.8V4H85.7v795.1C85.7,802.7,86.7,806.3,88.5,809.5z"/>
		</g>
		<g>
			<path fill="#20222B" d="M235.3,1084h-85.4L-4,832.9V722.2l143.4,233.9c6,9.8,16.1,11,23,9c6.9-1.9,15-8.3,15-19.7V-4h57.9V1084z
				 M154.3,1076h73V4h-41.9v941.4c0,13.1-8.2,23.9-20.8,27.4c-12.6,3.6-25.2-1.4-32-12.5L4,750.6v80.1L154.3,1076z"/>
		</g>
		<g>
			<path fill="#20222B" d="M960.2,1067.4c-94.8,0-183.8-23.8-264.4-70.8C615.2,949.6,550.6,885,503.6,804.4
				c-47-80.5-70.8-169.5-70.8-264.4c0-94.8,23.8-183.8,70.8-264.4c47-80.5,111.7-145.1,192.1-192.1l0,0
				c80.5-46.9,169.4-70.7,264.4-70.8c94.8,0,183.8,23.8,264.4,70.8c80.5,46.9,145.2,111.6,192.1,192.1
				c47,80.5,70.8,169.4,70.8,264.4c0,94.8-23.8,183.8-70.8,264.4c-46.9,80.5-111.6,145.2-192.1,192.1
				C1144.1,1043.6,1055.2,1067.4,960.2,1067.4z M699.8,90.4c-79.3,46.3-143,110-189.3,189.3c-46.3,79.4-69.8,167-69.8,260.4
				c0,93.5,23.5,181.1,69.8,260.4c46.2,79.3,109.9,143,189.3,189.3c79.4,46.3,167,69.8,260.4,69.8c93.5,0,181.1-23.5,260.4-69.8
				c79.3-46.2,143-109.9,189.3-189.3c46.3-79.4,69.8-167,69.8-260.4c0-93.5-23.5-181.1-69.8-260.4c-46.2-79.3-109.9-143-189.3-189.3
				c-79.4-46.3-167-69.8-260.4-69.8C866.7,20.7,779.1,44.2,699.8,90.4L699.8,90.4z M960.2,1017.5c-64.3,0-126.8-12.7-185.7-37.7
				c-58.7-24.9-110-59.1-152.6-101.5c-42.5-42.5-76.6-93.8-101.6-152.6c-25-58.9-37.7-121.4-37.7-185.7s12.7-126.8,37.7-185.7
				c24.9-58.7,59.1-110,101.5-152.6c42.5-42.5,93.8-76.6,152.6-101.6c58.8-25,121.3-37.7,185.7-37.7c64.3,0,126.8,12.7,185.7,37.7
				c58.7,24.9,110,59.1,152.6,101.5l0,0c42.4,42.4,76.5,93.7,101.6,152.6c25,58.9,37.7,121.4,37.7,185.7
				c0,64.3-12.7,126.8-37.7,185.7c-24.9,58.7-59.1,110-101.5,152.6c-42.4,42.4-93.7,76.5-152.6,101.6
				C1087,1004.8,1024.5,1017.5,960.2,1017.5z M960.2,70.5c-63.3,0-124.7,12.5-182.5,37.1c-57.8,24.5-108.3,58.1-150,99.8
				c-41.7,41.8-75.3,92.3-99.8,150c-24.6,57.9-37.1,119.3-37.1,182.5s12.5,124.6,37.1,182.5c24.5,57.8,58.1,108.3,99.8,150
				c41.8,41.7,92.3,75.3,150,99.8c57.9,24.6,119.3,37.1,182.5,37.1c63.2,0,124.6-12.5,182.5-37.1c57.9-24.6,108.4-58.2,150-99.8
				c41.7-41.8,75.3-92.3,99.8-150c24.6-57.9,37.1-119.3,37.1-182.5c0-63.2-12.5-124.6-37.1-182.5c-24.6-57.9-58.2-108.4-99.8-150
				c-41.8-41.7-92.3-75.3-150-99.8C1084.8,83,1023.4,70.5,960.2,70.5z"/>
		</g>
		<g>
			<path fill="#20222B" d="M960.1,867.9c-44.3,0-87-8.7-127.2-25.9c-40.1-17.1-75.4-40.7-104.8-70c-29.2-29.2-52.8-64.5-70-104.8
				c-17.2-40.1-25.9-82.9-25.9-127.2c0-44.3,8.7-87,25.9-127.2c17.1-40.1,40.7-75.4,70-104.8c29.2-29.2,64.5-52.8,104.8-70l0,0
				c40.2-17.2,82.8-25.9,126.4-25.9c0.3,0,0.5,0,0.7,0c44.2,0,87,8.7,127.2,25.9c40.3,17.3,75.5,40.8,104.8,70
				c29.2,29.2,52.8,64.5,70,104.8c17.2,40.1,25.9,82.9,25.9,127.2c0,44.3-8.7,87-25.9,127.2c-17.3,40.3-40.8,75.5-70,104.8
				c-29.2,29.2-64.5,52.8-104.8,70C1047.1,859.2,1004.4,867.9,960.1,867.9z M836.1,245.4c-39.4,16.9-73.8,39.9-102.2,68.4
				c-28.7,28.7-51.7,63.1-68.3,102.2c-16.8,39.1-25.3,80.9-25.3,124s8.5,84.9,25.3,124c16.9,39.4,39.9,73.8,68.4,102.2
				c28.7,28.7,63.1,51.7,102.2,68.3c39.1,16.8,80.9,25.3,124,25.3s84.9-8.5,124-25.3c39.4-16.9,73.8-39.9,102.2-68.4
				c28.5-28.5,51.5-62.9,68.4-102.2c16.8-39.1,25.3-80.9,25.3-124s-8.5-84.9-25.3-124c-16.9-39.4-39.9-73.8-68.4-102.2
				c-28.5-28.5-62.9-51.5-102.2-68.4c-39.1-16.8-80.9-25.3-124-25.3C917.2,220,875.5,228.5,836.1,245.4L836.1,245.4z M960.2,818.1
				c-76.4,0-142.6-27.4-196.6-81.5c-54.1-54.1-81.5-120.2-81.5-196.6c0-76.4,27.4-142.6,81.5-196.6c54.1-54.1,120.2-81.5,196.6-81.5
				c76.5,0,142.7,27.4,196.6,81.5c54.1,54.1,81.5,120.2,81.5,196.6c0,76.4-27.4,142.6-81.5,196.6S1036.6,818.1,960.2,818.1z
				 M960.2,269.9c-74.2,0-138.5,26.6-191,79.1c-52.5,52.5-79.1,116.8-79.1,191s26.6,138.5,79.1,191c52.5,52.5,116.8,79.1,191,79.1
				s138.5-26.6,191-79.1c52.5-52.5,79.1-116.8,79.1-191s-26.6-138.5-79.1-191l0,0C1098.8,296.5,1034.5,269.9,960.2,269.9z"/>
		</g>
		<g>
			<path fill="#20222B" d="M960.2,967.7c-76.8,0-149-19.3-214.5-57.3c-65.5-38.1-117.9-90.6-155.9-155.9
				c-38-65.4-57.3-137.5-57.3-214.5c0-76.8,19.3-149,57.3-214.5C628,260,680.4,207.5,745.7,169.6l0,0
				c65.3-37.9,137.4-57.2,214.5-57.3c76.8,0,149,19.3,214.5,57.3c65.5,38.1,117.9,90.6,155.8,155.9c38,65.4,57.3,137.5,57.3,214.5
				c0,76.8-19.3,149-57.3,214.5c-38.1,65.5-90.6,117.9-155.8,155.9C1109.4,948.4,1037.2,967.7,960.2,967.7z M960.2,120.3
				c-75.6,0.1-146.5,19-210.5,56.3l0,0c-64.1,37.2-115.5,88.7-153,153c-37.3,64.3-56.3,135.1-56.3,210.5
				c0,75.5,18.9,146.4,56.3,210.5c37.2,64.1,88.7,115.5,153,153c64.3,37.3,135.1,56.3,210.5,56.3c75.5,0,146.4-18.9,210.5-56.3
				c64.1-37.2,115.5-88.7,153-153c37.3-64.3,56.3-135.1,56.3-210.5c0-75.5-18.9-146.4-56.3-210.5c-37.2-64.1-88.7-115.5-153-153
				C1106.4,139.2,1035.6,120.3,960.2,120.3z M960.2,917.8c-68.3,0-132.1-17.1-189.6-50.7c-57.7-33.8-103.9-80-137.4-137.4
				c-33.7-57.5-50.7-121.3-50.7-189.6c0-68.3,17.1-132.1,50.7-189.6c33.8-57.7,80-103.9,137.4-137.4
				c57.5-33.7,121.3-50.7,189.6-50.7c68.3,0,132.1,17.1,189.6,50.7c57.5,33.7,103.7,79.9,137.4,137.4l0,0
				c33.7,57.5,50.7,121.3,50.7,189.6c0,68.3-17.1,132.1-50.7,189.6c-33.8,57.7-80,103.9-137.4,137.4
				C1092.3,900.7,1028.5,917.8,960.2,917.8z M960.2,170.2c-66.9,0-129.3,16.7-185.6,49.7c-56.2,32.8-101.5,78.1-134.6,134.6
				c-32.9,56.3-49.7,118.7-49.7,185.6c0,66.9,16.7,129.3,49.7,185.6c32.8,56.2,78.1,101.5,134.6,134.6
				c56.3,32.9,118.7,49.7,185.6,49.7c66.9,0,129.3-16.7,185.6-49.7c56.2-32.8,101.5-78.1,134.6-134.6
				c32.9-56.3,49.7-118.7,49.7-185.6c0-66.9-16.7-129.3-49.7-185.6c-33-56.3-78.3-101.6-134.6-134.6
				C1089.5,186.9,1027.1,170.2,960.2,170.2z"/>
		</g>
		<g>
			<path fill="#20222B" d="M791.8,1084H649.5l-0.9-0.5c-48.9-27.8-93.3-61.5-131.9-100C461.1,927.8,416.1,860.5,383,783.5
				C350,706.5,333.2,624.6,333.2,540c0-84.6,16.8-166.5,49.8-243.5c33-76.9,78-144.2,133.6-199.9c38.6-38.6,83-72.3,132-100.1
				l0.9-0.5h141.7L770,3.8c-11.3,4.1-21.4,8.1-30.8,12.1c-70.1,30-131.3,70.8-181.8,121.4c-50.7,50.7-91.5,111.8-121.3,181.8
				c-29.8,70-45,144.3-45,220.9c0,76.6,15.1,151,45,220.9c29.8,69.9,70.6,131.1,121.3,181.8c50.7,50.7,111.8,91.5,181.8,121.3l0,0
				c10.9,4.7,21,8.6,30.8,12.1L791.8,1084z M651.7,1076h95.2c-3.5-1.4-7.1-2.9-10.9-4.5c-70.9-30.3-133-71.7-184.4-123.1
				c-51.5-51.5-92.9-113.5-123.1-184.4C398.3,693.1,383,617.7,383,540c0-77.7,15.3-153.1,45.6-224.1c30.3-70.9,71.7-133,123.1-184.4
				C603,80.3,665,38.9,736,8.5c3.5-1.5,7.2-3,10.9-4.5h-95.3c-48,27.3-91.5,60.4-129.3,98.2c-55,55.1-99.4,121.5-132,197.4
				c-32.6,75.9-49.2,156.8-49.2,240.3c0,83.5,16.5,164.4,49.2,240.3c32.7,76.1,77.1,142.5,132.1,197.5
				C560.2,1015.6,603.7,1048.6,651.7,1076z"/>
		</g>
		<g>
			<path fill="#20222B" d="M1270.8,1084h-141.7l21.2-7.8c11.3-4.1,21.4-8.1,30.8-12.1c70-29.9,131.2-70.7,181.8-121.3
				c50.7-50.7,91.5-111.8,121.3-181.8c29.8-70,45-144.3,45-220.9c0-76.6-15.1-151-45-220.9c-30-70.2-70.9-131.3-121.3-181.8
				c-50.7-50.7-111.8-91.5-181.8-121.3c-10.2-4.4-20.6-8.5-30.8-12.1L1128.5-4h142.2l0.9,0.5c49,27.8,93.4,61.5,132,100
				c55.7,55.7,100.7,122.9,133.7,199.9c33.1,76.9,49.8,158.9,49.8,243.5c0,84.6-16.8,166.5-49.8,243.5c-33,77-78,144.2-133.7,199.9
				c-38.6,38.6-83,72.3-132,100.1L1270.8,1084z M1173.4,1076h95.3c48-27.3,91.5-60.4,129.3-98.2c55-55,99.4-121.4,132.1-197.4l0,0
				c32.6-75.9,49.2-156.8,49.2-240.3c0-83.5-16.5-164.4-49.2-240.3c-32.7-76.1-77.1-142.5-132.1-197.5
				c-37.8-37.8-81.4-70.9-129.3-98.2h-95.2c3.6,1.5,7.2,3,10.8,4.5c70.9,30.3,133,71.7,184.3,123c51.2,51.2,92.6,113.2,123,184.4
				c30.3,71,45.6,146.4,45.6,224.1c0,77.7-15.3,153.1-45.6,224.1c-30.3,70.9-71.7,133-123.1,184.4
				c-51.4,51.4-113.4,92.8-184.4,123.1C1180.7,1073,1177.1,1074.5,1173.4,1076z"/>
		</g>
		<g>
			<path fill="#20222B" d="M1924,1084h-234.8l-1.1-2.3c-3.8-8.1-5.8-16.9-5.8-26V24.3c0-9.1,1.9-17.9,5.8-26l1.1-2.3H1924v24.7
				h-130.4c-29.5,0-53.5,24-53.5,53.5v931.6c0,29.5,24,53.5,53.5,53.5H1924V1084z M1694.3,1076H1916v-8.7h-122.4
				c-33.9,0-61.5-27.6-61.5-61.5V74.2c0-33.9,27.6-61.5,61.5-61.5H1916V4h-221.7c-2.7,6.4-4,13.2-4,20.3v1031.4
				C1690.3,1062.8,1691.6,1069.6,1694.3,1076z"/>
		</g>
		<g>
			<path fill="#20222B" d="M1924,1017.5h-80.5c-33.9,0-61.5-27.6-61.5-61.5V124c0-33.9,27.6-61.5,61.5-61.5h80.5v57.8h-30.7
				c-29.5,0-53.5,24-53.5,53.5v732.3c0,29.5,24,53.5,53.5,53.5h4v0.1h26.7V1017.5z M1843.5,70.5c-29.5,0-53.5,24-53.5,53.5v832
				c0,29.5,24,53.5,53.5,53.5h72.5v-41.8h-26.7v-0.2c-32.1-2.1-57.5-28.8-57.5-61.4V173.8c0-33.9,27.6-61.5,61.5-61.5h22.7V70.5
				H1843.5z"/>
		</g>
		<g>
			<path fill="#20222B" d="M1924,915.1l-5.6-2.5c-22.3-9.8-36.7-31.9-36.7-56.3V223.7c0-24.4,14.4-46.4,36.7-56.3l5.6-2.5V915.1z
				 M1916,177.6c-16.2,9.5-26.3,27-26.3,46.1v632.7c0,19.1,10.1,36.5,26.3,46.1V177.6z"/>
		</g>
	</g>
	<g clip-path="url(#SVGID_2_)">
		<g>
			<path fill="#E8E152" d="M479.4,455.5v199.2c0,2.8-2.3,5.1-5.1,5.1h-0.2c-2.8,0-5.1-2.3-5.1-5.1V425.6c0-2.8,2.3-5.1,5.1-5.1h4.4
				c1.8,0,3.4,0.9,4.4,2.4L623.3,652c2.1,3.4-0.4,7.8-4.4,7.8l0,0c-1.8,0-3.4-0.9-4.4-2.4L488.8,452.8
				C486.1,448.4,479.4,450.3,479.4,455.5z M499.3,483.2l0.2,0.3c0.5,0.8,0.7,1.7,0.7,2.6v168.7c0,2.8-2.3,5.1-5.1,5.1h-0.2
				c-2.8,0-5.1-2.3-5.1-5.1v-169C489.8,480.6,496.6,478.7,499.3,483.2z M502.5,420.5h0.1c1.8,0,3.4,0.9,4.4,2.4L647.9,652
				c2.1,3.4-0.4,7.8-4.4,7.8h-0.1c-1.8,0-3.4-0.9-4.4-2.4L498.2,428.3C496.1,424.9,498.5,420.5,502.5,420.5z M520.1,517.6l0.2,0.3
				c0.5,0.8,0.7,1.7,0.7,2.6v134.3c0,2.8-2.3,5.1-5.1,5.1h-0.2c-2.8,0-5.1-2.3-5.1-5.1V520.2C510.6,515,517.4,513.1,520.1,517.6z
				 M527.1,420.5h0.3c1.8,0,3.4,0.9,4.4,2.4L672.4,652c2.1,3.4-0.4,7.8-4.4,7.8h-0.4c-1.8,0-3.4-0.9-4.4-2.4L522.7,428.3
				C520.6,424.9,523.1,420.5,527.1,420.5z M540.9,551.4l0.2,0.3c0.5,0.8,0.7,1.7,0.7,2.6v100.4c0,2.8-2.3,5.1-5.1,5.1h-0.2
				c-2.8,0-5.1-2.3-5.1-5.1V554C531.4,548.8,538.2,546.9,540.9,551.4z M551.5,420.5L551.5,420.5c1.9,0,3.5,0.9,4.5,2.4l125.5,204.5
				c2.7,4.4,9.5,2.5,9.5-2.7V425.6c0-2.8,2.3-5.1,5.1-5.1h0.2c2.8,0,5.1,2.3,5.1,5.1v229.1c0,2.8-2.3,5.1-5.1,5.1H692
				c-1.8,0-3.4-0.9-4.4-2.4L547.2,428.3C545.1,424.9,547.5,420.5,551.5,420.5z M629.4,529l-0.2-0.3c-0.5-0.8-0.7-1.7-0.7-2.6V425.6
				c0-2.8,2.3-5.1,5.1-5.1h0.2c2.8,0,5.1,2.3,5.1,5.1v100.7C638.9,531.5,632.1,533.4,629.4,529z M650.2,562.8l-0.2-0.3
				c-0.5-0.8-0.7-1.7-0.7-2.6V425.6c0-2.8,2.3-5.1,5.1-5.1h0.2c2.8,0,5.1,2.3,5.1,5.1v134.5C659.7,565.4,652.9,567.2,650.2,562.8z
				 M671,597.2l-0.2-0.3c-0.5-0.8-0.7-1.7-0.7-2.6V425.6c0-2.8,2.3-5.1,5.1-5.1h0.2c2.8,0,5.1,2.3,5.1,5.1v169
				C680.5,599.8,673.7,601.7,671,597.2z"/>
		</g>
		<g>
			<path fill="#E8E152" d="M733.8,590.7c-6.9-16-10.3-32.9-10.3-50.5s3.4-34.5,10.3-50.5c6.9-16,16.1-29.9,27.8-41.5
				c11.6-11.6,25.4-20.9,41.5-27.8c16-6.9,32.9-10.3,50.5-10.3s34.5,3.4,50.5,10.3s29.9,16.1,41.5,27.8
				c11.6,11.6,20.9,25.4,27.8,41.5c6.9,16,10.3,32.9,10.3,50.5s-3.4,34.5-10.3,50.5c-6.9,16-16.1,29.9-27.8,41.5
				c-11.6,11.6-25.4,20.9-41.5,27.8s-32.9,10.3-50.5,10.3s-34.5-3.4-50.5-10.3s-29.9-16.1-41.5-27.8
				C749.9,620.6,740.7,606.7,733.8,590.7z M743.3,493.7c-6.3,14.8-9.5,30.3-9.5,46.5s3.2,31.7,9.5,46.5s14.8,27.5,25.5,38.2
				s23.4,19.2,38.2,25.5s30.3,9.5,46.5,9.5s31.7-3.2,46.5-9.5s27.5-14.8,38.2-25.5s19.2-23.4,25.5-38.2s9.5-30.3,9.5-46.5
				s-3.2-31.7-9.5-46.5s-14.8-27.5-25.5-38.2S914.8,436.3,900,430s-30.3-9.5-46.5-9.5s-31.7,3.2-46.5,9.5s-27.5,14.8-38.2,25.5
				S749.7,478.9,743.3,493.7z M759,594.9c-9.8-16.8-14.7-35-14.7-54.8s4.9-38,14.7-54.8s23.1-30,39.8-39.8
				c16.8-9.8,35-14.7,54.8-14.7s38,4.9,54.8,14.7c16.8,9.8,30,23.1,39.8,39.8c9.8,16.8,14.7,35,14.7,54.8s-4.9,38-14.7,54.8
				s-23.1,30-39.8,39.8c-16.8,9.8-35,14.7-54.8,14.7s-38-4.9-54.8-14.7C782,625,768.7,611.7,759,594.9z M762.5,501.7
				c-5.2,12.2-7.8,25.1-7.8,38.4c0,13.4,2.6,26.2,7.8,38.4s12.2,22.8,21,31.6s19.3,15.8,31.6,21c12.2,5.2,25.1,7.8,38.4,7.8
				c13.4,0,26.2-2.6,38.4-7.8s22.8-12.2,31.6-21s15.8-19.3,21-31.6c5.2-12.2,7.8-25.1,7.8-38.4c0-13.4-2.6-26.2-7.8-38.4
				c-5.2-12.2-12.2-22.8-21-31.6s-19.3-15.8-31.6-21c-12.2-5.2-25.1-7.8-38.4-7.8c-13.4,0-26.2,2.6-38.4,7.8
				c-12.2,5.2-22.8,12.2-31.6,21S767.7,489.5,762.5,501.7z M777,584.5c-7.9-13.6-11.9-28.4-11.9-44.4s3.9-30.8,11.9-44.4
				c7.9-13.6,18.6-24.3,32.2-32.2c13.6-7.9,28.4-11.9,44.4-11.9s30.8,4,44.4,11.9c13.6,7.9,24.3,18.6,32.2,32.2s11.9,28.4,11.9,44.4
				s-4,30.8-11.9,44.4c-7.9,13.6-18.6,24.3-32.2,32.2c-13.6,7.9-28.4,11.9-44.4,11.9s-30.8-3.9-44.4-11.9
				C795.6,608.9,784.9,598.1,777,584.5z M786,501c-7,11.9-10.5,25-10.5,39.2s3.5,27.2,10.5,39.2c7,11.9,16.5,21.4,28.4,28.4
				s25,10.5,39.2,10.5s27.2-3.5,39.2-10.5c11.9-7,21.4-16.5,28.4-28.4s10.5-25,10.5-39.2s-3.5-27.2-10.5-39.2
				c-7-11.9-16.5-21.4-28.4-28.4s-25-10.5-39.2-10.5s-27.2,3.5-39.2,10.5S793,489.1,786,501z M791.3,566.4
				c-3.6-8.3-5.3-17.1-5.3-26.2c0-9.2,1.8-17.9,5.3-26.2c3.6-8.3,8.4-15.5,14.5-21.6s13.3-10.9,21.6-14.5s17.1-5.3,26.2-5.3
				c9.2,0,17.9,1.8,26.2,5.3c8.3,3.6,15.5,8.4,21.6,14.5s10.9,13.3,14.5,21.6c3.6,8.3,5.3,17.1,5.3,26.2c0,9.2-1.8,17.9-5.3,26.2
				c-3.6,8.3-8.4,15.5-14.5,21.6s-13.3,10.9-21.6,14.5s-17.1,5.3-26.2,5.3c-9.2,0-17.9-1.8-26.2-5.3c-8.3-3.6-15.5-8.4-21.6-14.5
				S794.8,574.7,791.3,566.4z M813.1,499.7c-11.2,11.2-16.8,24.7-16.8,40.5s5.6,29.3,16.8,40.5s24.7,16.8,40.5,16.8
				s29.3-5.6,40.5-16.8s16.8-24.7,16.8-40.5s-5.6-29.3-16.8-40.5s-24.7-16.8-40.5-16.8C837.7,482.9,824.3,488.5,813.1,499.7z"/>
		</g>
		<g>
			<path fill="#E8E152" d="M1138.6,659.8h-121.4c-6.6,0-12-5.4-12-12V432.5c0-6.6,5.4-12,12-12h121.4c18.8,0,36.3,5.3,52.6,16
				c16.3,10.7,29.3,25.2,39,43.6s14.5,38.4,14.5,60c0,16.2-2.9,31.7-8.6,46.5s-13.4,27.5-22.9,38.2s-20.8,19.2-33.9,25.5
				C1166.2,656.7,1152.6,659.8,1138.6,659.8z M1015.6,637.4c0,6.6,5.4,12,12,12h111c12.6,0,24.8-2.9,36.6-8.7
				c11.8-5.8,21.9-13.5,30.5-23.3c8.6-9.7,15.4-21.4,20.6-34.9s7.7-27.7,7.7-42.4s-2.6-28.9-7.7-42.3c-5.2-13.5-12-25.1-20.6-34.9
				s-18.7-17.6-30.5-23.3c-11.8-5.8-23.9-8.7-36.6-8.7h-111c-6.6,0-12,5.4-12,12V637.4z M1026,627V453.3c0-6.6,5.4-12,12-12h100.6
				c15,0,29.1,4.4,42.1,13.2s23.4,20.8,31.1,36.1c7.7,15.2,11.6,31.7,11.6,49.6c0,17.8-3.9,34.4-11.6,49.6
				c-7.7,15.2-18.1,27.2-31.1,36.1s-27,13.2-42.1,13.2H1038C1031.4,639,1026,633.7,1026,627z M1036.4,616.6c0,6.6,5.4,12,12,12h90.2
				c13.2,0,25.5-3.9,36.8-11.9c11.3-7.9,20.4-18.6,27.1-32.2c6.7-13.6,10.1-28.4,10.1-44.4c0-15.9-3.4-30.7-10.1-44.3
				c-6.7-13.6-15.8-24.4-27.2-32.3c-11.4-7.9-23.6-11.9-36.7-11.9h-90.2c-6.6,0-12,5.4-12,12L1036.4,616.6L1036.4,616.6z
				 M1046.8,606.2V474.1c0-6.6,5.4-12,12-12h79.8c11.3,0,21.8,3.5,31.5,10.4s17.5,16.4,23.2,28.4c5.7,12,8.6,25.1,8.6,39.2
				s-2.9,27.1-8.6,39.2c-5.7,12-13.5,21.5-23.2,28.5c-9.7,6.9-20.2,10.4-31.5,10.4h-79.8C1052.2,618.2,1046.8,612.8,1046.8,606.2z
				 M1057.2,595.8c0,6.6,5.4,12,12,12h69.4c14.4,0,26.7-6.6,37.1-19.9c10.4-13.2,15.5-29.2,15.5-47.8c0-12.2-2.4-23.6-7.2-34
				s-11.2-18.6-19.2-24.6s-16.8-9-26.2-9h-69.4c-6.6,0-12,5.4-12,12L1057.2,595.8L1057.2,595.8z M1067.6,585.4v-90.5
				c0-6.6,5.4-12,12-12h59c11.5,0,21.3,5.6,29.6,16.8c8.2,11.2,12.4,24.7,12.4,40.4c0,15.8-4.1,29.3-12.4,40.5
				c-8.2,11.2-18.1,16.8-29.6,16.8h-59C1073,597.4,1067.6,592,1067.6,585.4z M1078,575c0,6.6,5.4,12,12,12h48.6
				c8.6,0,15.9-4.6,22-13.7c6.1-9.2,9.2-20.2,9.2-33.1c0-13-3.1-24.1-9.2-33.2c-6.1-9.1-13.5-13.7-22-13.7H1090c-6.6,0-12,5.4-12,12
				V575z"/>
		</g>
		<g>
			<path fill="#E8E152" d="M1272.7,659.8L1272.7,659.8c-2.9,0-5.2-2.3-5.2-5.2V425.7c0-2.9,2.3-5.2,5.2-5.2l0,0
				c2.9,0,5.2,2.3,5.2,5.2v228.9C1277.9,657.5,1275.6,659.8,1272.7,659.8z M1293.5,659.8L1293.5,659.8c-2.9,0-5.2-2.3-5.2-5.2V425.7
				c0-2.9,2.3-5.2,5.2-5.2l0,0c2.9,0,5.2,2.3,5.2,5.2v228.9C1298.7,657.5,1296.4,659.8,1293.5,659.8z M1314.3,659.8L1314.3,659.8
				c-2.9,0-5.2-2.3-5.2-5.2V425.7c0-2.9,2.3-5.2,5.2-5.2l0,0c2.9,0,5.2,2.3,5.2,5.2v228.9C1319.5,657.5,1317.2,659.8,1314.3,659.8z
				 M1345.5,607.8h100.3c2.9,0,5.2,2.3,5.2,5.2l0,0c0,2.9-2.3,5.2-5.2,5.2h-100.3c-2.9,0-5.2,2.3-5.2,5.2l0,0c0,2.9,2.3,5.2,5.2,5.2
				h100.3c2.9,0,5.2,2.3,5.2,5.2l0,0c0,2.9-2.3,5.2-5.2,5.2h-100.3c-2.9,0-5.2,2.3-5.2,5.2l0,0c0,2.9,2.3,5.2,5.2,5.2h100.3
				c2.9,0,5.2,2.3,5.2,5.2l0,0c0,2.9-2.3,5.2-5.2,5.2h-110.7c-2.9,0-5.2-2.3-5.2-5.2V425.7c0-2.9,2.3-5.2,5.2-5.2h110.7
				c2.9,0,5.2,2.3,5.2,5.2l0,0c0,2.9-2.3,5.2-5.2,5.2h-100.3c-2.9,0-5.2,2.3-5.2,5.2l0,0c0,2.9,2.3,5.2,5.2,5.2h100.3
				c2.9,0,5.2,2.3,5.2,5.2l0,0c0,2.9-2.3,5.2-5.2,5.2h-100.3c-2.9,0-5.2,2.3-5.2,5.2l0,0c0,2.9,2.3,5.2,5.2,5.2h100.3
				c2.9,0,5.2,2.3,5.2,5.2l0,0c0,2.9-2.3,5.2-5.2,5.2h-100.3c-2.9,0-5.2,2.3-5.2,5.2V509c0,2.9,2.3,5.2,5.2,5.2h46.4
				c2.9,0,5.2,2.3,5.2,5.2l0,0c0,2.9-2.3,5.2-5.2,5.2h-46.4c-2.9,0-5.2,2.3-5.2,5.2l0,0c0,2.9,2.3,5.2,5.2,5.2h46.4
				c2.9,0,5.2,2.3,5.2,5.2l0,0c0,2.9-2.3,5.2-5.2,5.2h-46.4c-2.9,0-5.2,2.3-5.2,5.2l0,0c0,2.9,2.3,5.2,5.2,5.2h46.4
				c2.9,0,5.2,2.3,5.2,5.2l0,0c0,2.9-2.3,5.2-5.2,5.2h-46.4c-2.9,0-5.2,2.3-5.2,5.2v31.2C1340.3,605.5,1342.7,607.8,1345.5,607.8z"
				/>
		</g>
	</g>
	<g clip-path="url(#SVGID_2_)">
		<g>
			<path fill="#ACCDD2" d="M815.6,319.9c-0.6,5.4-2.5,9.5-5.8,12.4s-7.6,4.3-13.1,4.3c-3.8,0-7.2-0.9-10.1-2.8s-5.2-4.6-6.8-8.1
				s-2.4-7.5-2.4-11.9V307c0-4.5,0.8-8.6,2.4-12.1c1.6-3.5,3.9-6.2,6.9-8.1s6.4-2.9,10.3-2.9c5.5,0,9.8,1.5,13,4.4
				c3.2,3,5,7,5.5,12.3h-4.4c-1.1-8.7-5.8-13-14.2-13c-4.6,0-8.3,1.7-11.1,5.2s-4.1,8.3-4.1,14.4v6.3c0,5.9,1.3,10.6,4,14.1
				s6.3,5.3,10.9,5.3c4.5,0,7.9-1.1,10.2-3.3c2.3-2.2,3.7-5.4,4.3-9.8h4.5V319.9z"/>
		</g>
		<g>
			<path fill="#ACCDD2" d="M850.6,314.5h-14.9v21.3h-4.4v-51.2H848c5.5,0,9.7,1.3,12.8,4c3.1,2.6,4.6,6.3,4.6,11.1
				c0,3.3-1,6.2-2.9,8.7s-4.5,4.2-7.7,5.2l12.8,21.8v0.5H863L850.6,314.5z M835.8,310.8H849c3.6,0,6.6-1,8.8-3.1s3.3-4.7,3.3-8
				c0-3.6-1.1-6.4-3.4-8.4c-2.3-2-5.5-3-9.7-3h-12.2L835.8,310.8L835.8,310.8z"/>
		</g>
		<g>
			<path fill="#ACCDD2" d="M910.9,311.3H887v20.9h27.5v3.7h-31.9v-51.2h31.7v3.7h-27.4v19.3h23.9v3.6H910.9z"/>
		</g>
		<g>
			<path fill="#ACCDD2" d="M956.6,321.5h-23.2l-5.3,14.4h-4.5l19.4-51.2h4.1l19.4,51.2H962L956.6,321.5z M934.7,317.8h20.5
				L945,289.9L934.7,317.8z"/>
		</g>
		<g>
			<path fill="#ACCDD2" d="M1009.5,288.3H992v47.5h-4.3v-47.5h-17.5v-3.7h39.4v3.7H1009.5z"/>
		</g>
		<g>
			<path fill="#ACCDD2" d="M1028.5,335.8h-4.3v-51.2h4.3V335.8z"/>
		</g>
		<g>
			<path fill="#ACCDD2" d="M1085.9,335.8h-4.3l-29.4-43.8v43.8h-4.4v-51.2h4.4l29.5,43.8v-43.8h4.3L1085.9,335.8L1085.9,335.8z"/>
		</g>
		<g>
			<path fill="#ACCDD2" d="M1141.2,329.8c-1.5,2.1-3.8,3.8-7,5s-6.8,1.8-10.7,1.8c-4,0-7.6-1-10.7-2.9s-5.5-4.6-7.2-8.2
				c-1.7-3.5-2.6-7.5-2.6-12.1v-6.5c0-7.1,1.8-12.7,5.4-16.8s8.4-6.2,14.4-6.2c5.3,0,9.5,1.3,12.7,4s5.1,6.4,5.7,11.1h-4.3
				c-0.6-3.8-2.2-6.6-4.6-8.6c-2.4-1.9-5.6-2.9-9.5-2.9c-4.8,0-8.6,1.7-11.4,5.1s-4.2,8.2-4.2,14.4v6.1c0,3.9,0.7,7.3,2,10.3
				s3.2,5.3,5.7,6.9s5.3,2.5,8.5,2.5c3.7,0,6.9-0.6,9.6-1.8c1.7-0.8,3-1.7,3.9-2.7v-13.2h-13.7v-3.7h18.1v18.4H1141.2z"/>
		</g>
	</g>
	<g clip-path="url(#SVGID_2_)">
		<g>
			<path fill="#ACCDD2" d="M835,779.9c-0.6,5.4-2.5,9.5-5.8,12.4s-7.6,4.3-13.1,4.3c-3.8,0-7.2-0.9-10.1-2.8s-5.2-4.6-6.8-8.1
				s-2.4-7.5-2.4-11.9V767c0-4.5,0.8-8.6,2.4-12.1c1.6-3.5,3.9-6.2,6.9-8.1c3-1.9,6.4-2.9,10.3-2.9c5.5,0,9.8,1.5,13,4.4
				c3.2,3,5,7,5.5,12.3h-4.4c-1.1-8.7-5.8-13-14.2-13c-4.6,0-8.3,1.7-11.1,5.2s-4.1,8.3-4.1,14.4v6.3c0,5.9,1.3,10.6,4,14.1
				s6.3,5.3,10.9,5.3c4.5,0,7.9-1.1,10.2-3.3s3.7-5.4,4.3-9.8L835,779.9L835,779.9z"/>
		</g>
		<g>
			<path fill="#ACCDD2" d="M855.2,792.2h25.3v3.7h-29.6v-51.2h4.4v47.5H855.2z"/>
		</g>
		<g>
			<path fill="#ACCDD2" d="M899.5,795.8h-4.3v-51.2h4.3V795.8z"/>
		</g>
		<g>
			<path fill="#ACCDD2" d="M969.3,781.5h-23.2l-5.3,14.4h-4.5l19.4-51.2h4.1l19.4,51.2h-4.5L969.3,781.5z M947.4,777.8h20.5
				l-10.3-27.9L947.4,777.8z"/>
		</g>
		<g>
			<path fill="#ACCDD2" d="M996.4,775v20.8H992v-51.2h17.4c5.3,0,9.5,1.4,12.6,4.1c3.1,2.7,4.6,6.5,4.6,11.2c0,4.8-1.5,8.5-4.4,11.1
				c-3,2.6-7.3,3.9-12.9,3.9h-12.9V775z M996.4,771.3h13.1c4.2,0,7.4-1,9.6-3s3.3-4.8,3.3-8.3s-1.1-6.4-3.3-8.5s-5.3-3.2-9.3-3.2
				h-13.4L996.4,771.3L996.4,771.3z"/>
		</g>
		<g>
			<path fill="#ACCDD2" d="M1046.1,775v20.8h-4.3v-51.2h17.4c5.3,0,9.5,1.4,12.6,4.1c3.1,2.7,4.6,6.5,4.6,11.2
				c0,4.8-1.5,8.5-4.4,11.1c-3,2.6-7.3,3.9-12.9,3.9h-13V775z M1046.1,771.3h13.1c4.2,0,7.4-1,9.6-3s3.3-4.8,3.3-8.3
				s-1.1-6.4-3.3-8.5c-2.2-2.1-5.3-3.2-9.3-3.2h-13.4L1046.1,771.3L1046.1,771.3z"/>
		</g>
		<g>
			<path fill="#ACCDD2" d="M1120.5,783.3c0-2.8-1-5.1-3-6.7c-2-1.7-5.6-3.2-10.9-4.7s-9.2-3.1-11.6-4.9c-3.5-2.5-5.2-5.7-5.2-9.8
				c0-3.9,1.6-7.1,4.8-9.5c3.2-2.4,7.3-3.7,12.4-3.7c3.4,0,6.4,0.7,9.1,2s4.8,3.1,6.2,5.5c1.5,2.3,2.2,5,2.2,7.8h-4.4
				c0-3.5-1.2-6.3-3.6-8.4c-2.4-2.1-5.6-3.2-9.6-3.2c-3.9,0-7,0.9-9.4,2.6s-3.5,4-3.5,6.8c0,2.6,1,4.7,3.1,6.4
				c2.1,1.6,5.4,3.1,10,4.3c4.6,1.3,8.1,2.6,10.4,3.9c2.4,1.3,4.1,3,5.3,4.8c1.2,1.9,1.8,4.1,1.8,6.6c0,4-1.6,7.3-4.8,9.7
				c-3.2,2.4-7.5,3.7-12.7,3.7c-3.6,0-6.9-0.6-9.9-1.9c-3-1.3-5.3-3.1-6.9-5.4c-1.6-2.3-2.3-5-2.3-8h4.3c0,3.6,1.3,6.5,4,8.5
				c2.7,2.1,6.3,3.1,10.8,3.1c4,0,7.2-0.9,9.6-2.6C1119.3,788.5,1120.5,786.2,1120.5,783.3z"/>
		</g>
	</g>
</g>
</svg>
