<?xml version="1.0" encoding="utf-8"?>
<!-- Generator: Adobe Illustrator 24.2.1, SVG Export Plug-In . SVG Version: 6.00 Build 0)  -->
<svg version="1.2" baseProfile="tiny" xmlns="http://www.w3.org/2000/svg" xmlns:xlink="http://www.w3.org/1999/xlink" x="0px"
	 y="0px" viewBox="0 0 1920 1080" overflow="visible" xml:space="preserve">
<g id="Layer_2">
	<rect fill="#18191E" width="1920" height="1080"/>
	<rect x="275" y="331" display="none" fill="#ED243C" width="1368" height="396"/>
</g>
<g id="Layer_3">
</g>
<g id="Layer_1">
	<g>
		<polygon fill="#ED243C" points="1642.9,738 228.9,738 277.1,342 1691.1,342 		"/>
		<g>
			<path fill="#F0F3F7" d="M422.8,532.3h76.4c-1.2,40.7-17.1,60.8-25.2,69c-18.6,19.1-39.9,22.8-60.2,22.8c-20.8,0-42.6-4.8-60-22.8
				c-16.9-17.4-20.8-38.7-20.8-55.9c0-30.5,11.3-51.3,24.5-65.1c20.6-21.3,43.8-24.9,66.8-24.9c14.7,0,31.3,2.4,46,11.9
				c10.8,7,20.3,18.4,26.4,29.1L462,514.4c-2.9-6.5-8.3-13.8-15.2-18.4c-8.6-5.8-17.9-6.8-25-6.8c-13.2,0-24.2,3.1-34.3,13.6
				c-10.8,11.1-15.9,27.1-15.9,41.2c0,12.3,4.7,26.2,13.5,34.6c10.3,10.2,23.5,11.6,33.5,11.6c7.6,0,17.9-1.5,26-7.3
				c5.9-4.1,11.5-11.6,14-20.8h-39.4L422.8,532.3z"/>
			<path fill="#F0F3F7" d="M623.3,525.5c8.3,8.2,14.7,20.8,14.7,36.6s-6.1,32.7-17.6,44.3c-15.4,15.5-34.3,17.7-50.2,17.7
				c-14,0-31.6-1.9-45.5-16.2c-8.6-8.7-14.9-22-14.9-38c0-15.7,5.9-31.5,17.6-42.6c12-11.6,30.1-18.4,50.2-18.4
				C595.1,508.8,612.5,514.9,623.3,525.5z M592.7,586.8c6.1-5.8,9.1-14.8,9.1-23s-3.2-14.8-7.3-18.6c-4.7-4.4-12.5-6.8-19.1-6.8
				s-14,2.4-19.6,7.5c-6.6,5.8-9.8,14.8-9.8,23c0,7.5,2.9,14,7.1,18.4c3.4,3.6,9.5,7.3,19.1,7.3C580.9,594.5,588,591.1,592.7,586.8z
				"/>
			<path fill="#F0F3F7" d="M759.6,458.9l-16.2,130h50.9l-3.9,31.5h-88.6l20.1-161.5H759.6z"/>
			<path fill="#F0F3F7" d="M897.9,512.4h35.3l-13.5,108h-35.3l2.7-12.3c-3.9,4.6-9.5,9.4-15.4,12.1c-7.6,3.4-16.2,3.9-20.3,3.9
				c-13.5,0-24.2-3.4-33.8-13.3c-8.1-8.5-14.7-21.1-14.7-39.7c0-19.9,7.1-35.8,17.6-46.5c11.3-11.4,25-15.7,40.1-15.7
				c6.4,0,14.2,0.7,21.3,4.1c4.2,1.9,10,5.8,14.9,12.6L897.9,512.4z M847.5,546.8c-4.9,4.8-8.3,12.6-8.3,21.6s3.7,14.8,7.1,18.4
				c5.1,5.3,11.5,7.3,18.6,7.3c10,0,16.4-3.9,20.1-7.3c6.4-6.1,9.3-15.3,9.3-23.2c0-7.7-2.9-14.5-7.6-18.6
				c-3.2-2.9-8.8-6.1-18.4-6.1C859.5,538.8,852.9,541.5,847.5,546.8z"/>
			<path fill="#F0F3F7" d="M955.7,512.4H991l-2,12.6c3.9-5.6,8.8-9,13-11.1c2.7-1.2,9.1-4.1,18.6-4.1c8.6,0,15.2,2.2,19.8,5.3
				c2.2,1.5,8.1,5.8,11.3,14.5c1.5-2.2,6.4-9.2,14.4-14c7.6-4.6,15.9-5.8,23.3-5.8c7.8,0,19.8,1.2,29.1,9.9
				c13.2,12.6,10.8,29.1,9.1,42.6l-7.1,58.1h-35.3l6.4-52.1c1-8.7,1.2-11.4,1.2-13.3c0-3.6-0.7-8.7-4.4-12.3
				c-2.2-2.2-6.1-3.9-10.5-3.9c-5.6,0-10.3,2.2-13.5,5.3c-3.7,3.6-7.3,10.4-9.1,24.2l-6.4,52.1h-35.3l6.6-53.3c0.5-4.4,1-8,1-11.9
				c0-3.4-0.2-8.7-3.9-12.3c-2.7-2.7-7.3-4.1-11.3-4.1c-4.2,0-9.3,1.5-13.5,5.6c-6.6,6.8-7.8,16.7-8.8,24.5l-6.4,51.6h-35.3
				L955.7,512.4z"/>
			<path fill="#F0F3F7" d="M1190.7,524.5c1.7-2.2,6.4-7.5,13.5-11.1c6.9-3.4,14-4.6,21.3-4.6c13.2,0,24,3.4,33,11.6
				c13,11.9,15.7,27.6,15.7,39.5c0,19.9-6.4,37.3-17.9,48.9c-11.8,11.9-25,15.3-40.4,15.3c-6.9,0-15.4-1-23-5.1
				c-7.3-4.1-12-10.2-13.2-11.9l-1,13.3h-35.3l22.3-176.5h35.3L1190.7,524.5z M1192.7,546.3c-5.1,5.1-9.1,12.8-9.1,22.3
				c0,10.4,4.4,16.2,7.1,18.6c4.2,3.9,10.8,6.8,17.9,6.8c6.6,0,14.7-2.7,20.1-8c5.9-5.6,9.3-14.8,9.3-22.5c0-7-2.7-13.6-7.6-18.2
				c-3.7-3.6-9.3-6.5-17.4-6.5C1203.2,538.8,1196.6,542.5,1192.7,546.3z"/>
			<path fill="#F0F3F7" d="M1388,443.9h35.3l-22,176.5h-35l2-12.3c-4.4,6.3-9.8,9.9-14.4,12.1c-7.6,3.6-16.6,3.9-21.1,3.9
				c-13.2,0-24-3.6-33-12.3c-8.8-8.7-14.9-22-14.9-39.2c0-17.7,6.1-35.8,18.9-48.4c11.5-11.4,25.5-15.3,39.2-15.3
				c8.1,0,23.5,1.9,35.3,16.7L1388,443.9z M1329.8,546.8c-5.4,5.3-8.8,13.1-8.8,22c0,9.4,3.9,15.3,7.6,18.6
				c3.4,3.4,9.3,6.5,18.1,6.5c9.3,0,16.2-3.9,20.3-8.2c5.4-5.6,8.6-14.8,8.6-22.3c0-8.5-3.9-14.3-7.1-17.4
				c-3.4-3.4-9.5-7.3-18.6-7.3C1339.6,538.8,1333.2,543.4,1329.8,546.8z"/>
			<path fill="#F0F3F7" d="M1521,512.4h35.3l-13.5,108h-35.3l2.7-12.3c-3.9,4.6-9.5,9.4-15.4,12.1c-7.6,3.4-16.2,3.9-20.3,3.9
				c-13.5,0-24.2-3.4-33.8-13.3c-8.1-8.5-14.7-21.1-14.7-39.7c0-19.9,7.1-35.8,17.6-46.5c11.3-11.4,25-15.7,40.1-15.7
				c6.4,0,14.2,0.7,21.3,4.1c4.2,1.9,10,5.8,14.9,12.6L1521,512.4z M1470.5,546.8c-4.9,4.8-8.3,12.6-8.3,21.6s3.7,14.8,7.1,18.4
				c5.1,5.3,11.5,7.3,18.6,7.3c10,0,16.4-3.9,20.1-7.3c6.4-6.1,9.3-15.3,9.3-23.2c0-7.7-2.9-14.5-7.6-18.6
				c-3.2-2.9-8.8-6.1-18.4-6.1C1482.5,538.8,1475.9,541.5,1470.5,546.8z"/>
		</g>
	</g>
</g>
<g id="Layer_4">
</g>
</svg>
